<?xml version="1.0" encoding="UTF-8"?>
<svg xmlns="http://www.w3.org/2000/svg" width="193" height="60" viewBox="0 0 193 60" fill="none">
  <rect width="192.8" height="60" rx="30" fill="#212121"></rect>
  <path d="M71.1402 22.4004H71.8047L69.9344 17.3273H69.3086L67.4383 22.4004H68.1027L68.6125 20.9484H70.6305C70.6305 20.9484 70.6562 21.0223 70.7078 21.1699C70.7594 21.3152 70.818 21.484 70.8836 21.6762C70.9516 21.866 71.0113 22.0348 71.0629 22.1824C71.1145 22.3277 71.1402 22.4004 71.1402 22.4004ZM69.5934 18.1465H69.6496L70.4441 20.4105H68.7988C68.7988 20.4105 68.8258 20.3344 68.8797 20.182C68.9336 20.0297 68.9992 19.841 69.0766 19.616C69.1562 19.391 69.2348 19.166 69.3121 18.941C69.3918 18.716 69.4586 18.5273 69.5125 18.375C69.5664 18.2227 69.5934 18.1465 69.5934 18.1465ZM75.492 18.6105H74.8451L73.808 21.7324H73.7517L72.7146 18.6105H72.0677L73.4705 22.4004H74.0892C74.0892 22.4004 74.1361 22.2727 74.2299 22.0172C74.3259 21.7617 74.4431 21.4465 74.5814 21.0715C74.722 20.6941 74.8615 20.318 74.9998 19.943C75.1381 19.5656 75.2541 19.2492 75.3478 18.9938C75.4439 18.7383 75.492 18.6105 75.492 18.6105ZM77.6007 21.9363C77.3804 21.9363 77.1976 21.8824 77.0523 21.7746C76.907 21.6668 76.8343 21.5168 76.8343 21.3246C76.8343 20.9496 77.1109 20.7434 77.664 20.7059L78.6835 20.6391V20.9871C78.6835 21.2566 78.5804 21.4828 78.3742 21.6656C78.1702 21.8461 77.9124 21.9363 77.6007 21.9363ZM77.4882 22.4672C77.7413 22.4672 77.9687 22.4133 78.1702 22.3055C78.3718 22.1977 78.5335 22.043 78.6554 21.8414H78.7117V22.4004H79.2882V19.8059C79.2882 19.4121 79.1628 19.1039 78.912 18.8813C78.6636 18.6563 78.3085 18.5438 77.8468 18.5438C77.4437 18.5438 77.105 18.6363 76.8308 18.8215C76.5566 19.0043 76.3995 19.248 76.3597 19.5527H76.9714C77.0136 19.4027 77.1097 19.2867 77.2597 19.2047C77.4097 19.1227 77.5984 19.0816 77.8257 19.0816C78.1093 19.0816 78.3226 19.1438 78.4656 19.268C78.6109 19.3922 78.6835 19.5715 78.6835 19.8059V20.1504L77.5902 20.2172C76.6691 20.2711 76.2085 20.6449 76.2085 21.3387C76.2085 21.6855 76.3292 21.9609 76.5706 22.1648C76.8144 22.3664 77.1202 22.4672 77.4882 22.4672ZM80.6938 22.4004H81.2985V18.6105H80.6938C80.6938 18.6105 80.6938 18.7383 80.6938 18.9938C80.6938 19.2492 80.6938 19.5656 80.6938 19.943C80.6938 20.318 80.6938 20.6941 80.6938 21.0715C80.6938 21.4465 80.6938 21.7617 80.6938 22.0172C80.6938 22.2727 80.6938 22.4004 80.6938 22.4004ZM80.9962 17.8793C81.1134 17.8793 81.213 17.8383 81.295 17.7563C81.377 17.6719 81.4181 17.5723 81.4181 17.4574C81.4181 17.3402 81.377 17.2406 81.295 17.1586C81.213 17.0766 81.1134 17.0355 80.9962 17.0355C80.879 17.0355 80.7794 17.0766 80.6974 17.1586C80.6153 17.2406 80.5743 17.3402 80.5743 17.4574C80.5743 17.5723 80.6153 17.6719 80.6974 17.7563C80.7794 17.8383 80.879 17.8793 80.9962 17.8793ZM82.7604 22.4004H83.3651V17.1059H82.7604C82.7604 17.1059 82.7604 17.2336 82.7604 17.4891C82.7604 17.7445 82.7604 18.0738 82.7604 18.477C82.7604 18.8777 82.7604 19.3031 82.7604 19.7531C82.7604 20.2031 82.7604 20.6297 82.7604 21.0328C82.7604 21.4336 82.7604 21.7617 82.7604 22.0172C82.7604 22.2727 82.7604 22.4004 82.7604 22.4004ZM85.9801 21.9363C85.7598 21.9363 85.577 21.8824 85.4317 21.7746C85.2864 21.6668 85.2137 21.5168 85.2137 21.3246C85.2137 20.9496 85.4903 20.7434 86.0434 20.7059L87.0629 20.6391V20.9871C87.0629 21.2566 86.9598 21.4828 86.7535 21.6656C86.5496 21.8461 86.2918 21.9363 85.9801 21.9363ZM85.8676 22.4672C86.1207 22.4672 86.3481 22.4133 86.5496 22.3055C86.7512 22.1977 86.9129 22.043 87.0348 21.8414H87.091V22.4004H87.6676V19.8059C87.6676 19.4121 87.5422 19.1039 87.2914 18.8813C87.043 18.6563 86.6879 18.5438 86.2262 18.5438C85.8231 18.5438 85.4844 18.6363 85.2102 18.8215C84.936 19.0043 84.7789 19.248 84.7391 19.5527H85.3508C85.393 19.4027 85.4891 19.2867 85.6391 19.2047C85.7891 19.1227 85.9778 19.0816 86.2051 19.0816C86.4887 19.0816 86.702 19.1438 86.845 19.268C86.9903 19.3922 87.0629 19.5715 87.0629 19.8059V20.1504L85.9696 20.2172C85.0485 20.2711 84.5879 20.6449 84.5879 21.3387C84.5879 21.6855 84.7086 21.9609 84.95 22.1648C85.1938 22.3664 85.4996 22.4672 85.8676 22.4672ZM90.9436 22.4672C91.424 22.4672 91.8084 22.2891 92.0967 21.9328C92.3873 21.5742 92.5326 21.0984 92.5326 20.5055C92.5326 19.9102 92.3885 19.4344 92.1002 19.0781C91.8119 18.7219 91.4264 18.5438 90.9436 18.5438C90.6834 18.5438 90.4455 18.6035 90.2299 18.723C90.0166 18.8426 89.8584 19.0043 89.7553 19.2082H89.699V17.1059H89.0943V22.4004H89.6709V21.7957H89.7271C89.8467 22.0066 90.0131 22.1719 90.2264 22.2914C90.442 22.4086 90.6811 22.4672 90.9436 22.4672ZM90.8029 19.0887C91.1498 19.0887 91.4205 19.2141 91.615 19.4648C91.8096 19.7156 91.9068 20.0625 91.9068 20.5055C91.9068 20.9484 91.8096 21.2953 91.615 21.5461C91.4205 21.7969 91.1498 21.9223 90.8029 21.9223C90.4584 21.9223 90.1853 21.7957 89.9838 21.5426C89.7846 21.2895 89.685 20.9438 89.685 20.5055C89.685 20.0672 89.7846 19.7215 89.9838 19.4684C90.1853 19.2152 90.4584 19.0887 90.8029 19.0887ZM93.7906 22.4004H94.3953V17.1059H93.7906C93.7906 17.1059 93.7906 17.2336 93.7906 17.4891C93.7906 17.7445 93.7906 18.0738 93.7906 18.477C93.7906 18.8777 93.7906 19.3031 93.7906 19.7531C93.7906 20.2031 93.7906 20.6297 93.7906 21.0328C93.7906 21.4336 93.7906 21.7617 93.7906 22.0172C93.7906 22.2727 93.7906 22.4004 93.7906 22.4004ZM97.3548 19.0781C97.6548 19.0781 97.8974 19.1801 98.0825 19.384C98.2677 19.5879 98.3638 19.8574 98.3708 20.1926H96.2825C96.306 19.8574 96.415 19.5879 96.6095 19.384C96.804 19.1801 97.0525 19.0781 97.3548 19.0781ZM98.3533 21.4195C98.2736 21.5859 98.1517 21.7137 97.9876 21.8027C97.8236 21.8895 97.6197 21.9328 97.3759 21.9328C97.0548 21.9328 96.7958 21.8227 96.599 21.6023C96.4044 21.382 96.299 21.0844 96.2825 20.7094V20.6813H99.0072V20.4492C99.0072 19.8609 98.8607 19.3969 98.5677 19.057C98.2747 18.7148 97.8728 18.5438 97.3618 18.5438C96.8415 18.5438 96.4267 18.723 96.1173 19.0816C95.8079 19.4379 95.6533 19.9137 95.6533 20.509C95.6533 21.109 95.8068 21.5859 96.1138 21.9398C96.4208 22.2914 96.8368 22.4672 97.3618 22.4672C97.7767 22.4672 98.1247 22.3734 98.406 22.1859C98.6872 21.9984 98.8712 21.743 98.9579 21.4195C98.9579 21.4195 98.9275 21.4195 98.8665 21.4195C98.8056 21.4195 98.7353 21.4195 98.6556 21.4195C98.5759 21.4195 98.5056 21.4195 98.4447 21.4195C98.3837 21.4195 98.3533 21.4195 98.3533 21.4195ZM104.093 22.4672C104.632 22.4672 105.057 22.2926 105.369 21.9434C105.683 21.5918 105.84 21.1125 105.84 20.5055C105.84 19.8961 105.683 19.4168 105.369 19.0676C105.057 18.7184 104.632 18.5438 104.093 18.5438C103.554 18.5438 103.127 18.7184 102.813 19.0676C102.502 19.4168 102.346 19.8961 102.346 20.5055C102.346 21.1125 102.502 21.5918 102.813 21.9434C103.127 22.2926 103.554 22.4672 104.093 22.4672ZM104.093 21.9223C103.734 21.9223 103.458 21.798 103.263 21.5496C103.069 21.3012 102.972 20.9531 102.972 20.5055C102.972 20.0555 103.069 19.7074 103.263 19.4613C103.458 19.2129 103.734 19.0887 104.093 19.0887C104.452 19.0887 104.728 19.2129 104.923 19.4613C105.117 19.7074 105.215 20.0555 105.215 20.5055C105.215 20.9531 105.117 21.3012 104.923 21.5496C104.728 21.798 104.452 21.9223 104.093 21.9223ZM107.063 22.4004H107.668V20.1574C107.668 19.8246 107.758 19.5633 107.939 19.3734C108.119 19.1836 108.36 19.0887 108.663 19.0887C108.965 19.0887 109.189 19.1707 109.334 19.3348C109.482 19.4988 109.556 19.752 109.556 20.0941V22.4004H110.16V19.9465C110.16 19.4965 110.046 19.1508 109.816 18.9094C109.589 18.6656 109.262 18.5438 108.835 18.5438C108.544 18.5438 108.305 18.6023 108.118 18.7195C107.933 18.8367 107.792 18.9996 107.696 19.2082H107.64V18.6105H107.063C107.063 18.6105 107.063 18.7383 107.063 18.9938C107.063 19.2492 107.063 19.5656 107.063 19.943C107.063 20.318 107.063 20.6941 107.063 21.0715C107.063 21.4465 107.063 21.7617 107.063 22.0172C107.063 22.2727 107.063 22.4004 107.063 22.4004ZM114.1 17.6297V18.6105H113.488V19.1168H114.1V21.416C114.1 21.777 114.185 22.0359 114.353 22.193C114.524 22.35 114.804 22.4285 115.194 22.4285C115.254 22.4285 115.314 22.425 115.373 22.418C115.431 22.4133 115.49 22.4051 115.549 22.3934V21.8836C115.492 21.8883 115.444 21.8918 115.404 21.8941C115.367 21.8965 115.321 21.8977 115.267 21.8977C115.07 21.8977 114.928 21.8473 114.838 21.7465C114.749 21.6457 114.705 21.484 114.705 21.2613V19.1168H115.549V18.6105H114.705V17.6297C114.705 17.6297 114.674 17.6297 114.613 17.6297C114.553 17.6297 114.482 17.6297 114.403 17.6297C114.323 17.6297 114.253 17.6297 114.192 17.6297C114.131 17.6297 114.1 17.6297 114.1 17.6297ZM116.771 22.4004H117.376V20.1574C117.376 19.8363 117.466 19.5785 117.647 19.384C117.827 19.1871 118.087 19.0887 118.427 19.0887C118.713 19.0887 118.93 19.173 119.078 19.3418C119.228 19.5082 119.303 19.759 119.303 20.0941V22.4004H119.907V19.9465C119.907 19.5012 119.789 19.1566 119.552 18.9129C119.318 18.6668 119 18.5438 118.6 18.5438C118.309 18.5438 118.065 18.6023 117.868 18.7195C117.674 18.8367 117.528 18.9996 117.432 19.2082H117.376V17.1059H116.771C116.771 17.1059 116.771 17.2336 116.771 17.4891C116.771 17.7445 116.771 18.0738 116.771 18.477C116.771 18.8777 116.771 19.3031 116.771 19.7531C116.771 20.2031 116.771 20.6297 116.771 21.0328C116.771 21.4336 116.771 21.7617 116.771 22.0172C116.771 22.2727 116.771 22.4004 116.771 22.4004ZM122.797 19.0781C123.097 19.0781 123.339 19.1801 123.524 19.384C123.709 19.5879 123.806 19.8574 123.813 20.1926H121.724C121.748 19.8574 121.857 19.5879 122.051 19.384C122.246 19.1801 122.494 19.0781 122.797 19.0781ZM123.795 21.4195C123.715 21.5859 123.593 21.7137 123.429 21.8027C123.265 21.8895 123.061 21.9328 122.818 21.9328C122.497 21.9328 122.238 21.8227 122.041 21.6023C121.846 21.382 121.741 21.0844 121.724 20.7094V20.6813H124.449V20.4492C124.449 19.8609 124.302 19.3969 124.009 19.057C123.717 18.7148 123.315 18.5438 122.804 18.5438C122.283 18.5438 121.868 18.723 121.559 19.0816C121.25 19.4379 121.095 19.9137 121.095 20.509C121.095 21.109 121.249 21.5859 121.556 21.9398C121.863 22.2914 122.279 22.4672 122.804 22.4672C123.218 22.4672 123.567 22.3734 123.848 22.1859C124.129 21.9984 124.313 21.743 124.4 21.4195C124.4 21.4195 124.369 21.4195 124.308 21.4195C124.247 21.4195 124.177 21.4195 124.097 21.4195C124.018 21.4195 123.947 21.4195 123.886 21.4195C123.825 21.4195 123.795 21.4195 123.795 21.4195Z" fill="white"></path>
  <path d="M74.5026 37.5996H75.9597L71.8581 26.4745H70.4858L66.3843 37.5996H67.8414L68.9593 34.4155H73.3847C73.3847 34.4155 73.4412 34.5774 73.5543 34.9012C73.6674 35.2199 73.7958 35.5899 73.9398 36.0114C74.0888 36.4277 74.2199 36.7978 74.333 37.1216C74.446 37.4403 74.5026 37.5996 74.5026 37.5996ZM71.1488 28.1629H71.1951L72.976 33.2359H69.3679C69.3679 33.2359 69.427 33.0663 69.5452 32.7271C69.6686 32.3827 69.8176 31.9587 69.9924 31.455C70.1723 30.9513 70.3496 30.4476 70.5244 29.9439C70.6991 29.4402 70.8456 29.0187 70.9638 28.6795C71.0872 28.3351 71.1488 28.1629 71.1488 28.1629ZM81.517 29.4427C80.9362 29.4427 80.4197 29.5789 79.9674 29.8514C79.5202 30.1238 79.1733 30.4861 78.9266 30.9384H78.8957V29.5815H77.6236V40.2749H78.9651V36.2967H78.996C79.2375 36.7336 79.5793 37.0831 80.0214 37.3452C80.4634 37.6073 80.9722 37.7384 81.5479 37.7384C82.5604 37.7384 83.3802 37.3606 84.0073 36.6051C84.6343 35.8495 84.9479 34.8447 84.9479 33.5906C84.9479 32.3313 84.6318 31.3265 83.9996 30.5761C83.3674 29.8205 82.5399 29.4427 81.517 29.4427ZM81.2549 36.5588C80.5713 36.5588 80.0162 36.289 79.5896 35.7493C79.1682 35.2045 78.9574 34.4849 78.9574 33.5906C78.9574 32.7014 79.1682 31.9844 79.5896 31.4396C80.0162 30.8947 80.5713 30.6223 81.2549 30.6223C81.9693 30.6223 82.5347 30.8922 82.951 31.4318C83.3674 31.9664 83.5755 32.686 83.5755 33.5906C83.5755 34.5003 83.3674 35.2225 82.951 35.757C82.5347 36.2915 81.9693 36.5588 81.2549 36.5588ZM90.7982 29.4427C90.2174 29.4427 89.7008 29.5789 89.2485 29.8514C88.8014 30.1238 88.4544 30.4861 88.2077 30.9384H88.1769V29.5815H86.9048V40.2749H88.2463V36.2967H88.2771C88.5187 36.7336 88.8605 37.0831 89.3025 37.3452C89.7445 37.6073 90.2534 37.7384 90.829 37.7384C91.8415 37.7384 92.6613 37.3606 93.2884 36.6051C93.9155 35.8495 94.229 34.8447 94.229 33.5906C94.229 32.3313 93.9129 31.3265 93.2807 30.5761C92.6485 29.8205 91.821 29.4427 90.7982 29.4427ZM90.536 36.5588C89.8524 36.5588 89.2973 36.289 88.8707 35.7493C88.4493 35.2045 88.2385 34.4849 88.2385 33.5906C88.2385 32.7014 88.4493 31.9844 88.8707 31.4396C89.2973 30.8947 89.8524 30.6223 90.536 30.6223C91.2505 30.6223 91.8159 30.8922 92.2322 31.4318C92.6485 31.9664 92.8567 32.686 92.8567 33.5906C92.8567 34.5003 92.6485 35.2225 92.2322 35.757C91.8159 36.2915 91.2505 36.5588 90.536 36.5588ZM96.2553 37.5996H97.5968V26.4745H96.2553C96.2553 26.4745 96.2553 26.7418 96.2553 27.2763C96.2553 27.8109 96.2553 28.5022 96.2553 29.3502C96.2553 30.1932 96.2553 31.09 96.2553 32.0409C96.2553 32.9866 96.2553 33.8835 96.2553 34.7316C96.2553 35.5745 96.2553 36.2633 96.2553 36.7978C96.2553 37.3323 96.2553 37.5996 96.2553 37.5996ZM103.223 30.6069C103.856 30.6069 104.365 30.8228 104.75 31.2545C105.141 31.6811 105.344 32.2311 105.359 32.9044H101.003C101.044 32.2362 101.268 31.6863 101.674 31.2545C102.08 30.8228 102.596 30.6069 103.223 30.6069ZM105.328 35.3021C105.215 35.6773 104.981 35.9831 104.627 36.2196C104.277 36.456 103.848 36.5742 103.339 36.5742C102.62 36.5742 102.049 36.3429 101.628 35.8803C101.206 35.4126 100.995 34.7958 100.995 34.03V33.9529H106.747V33.4441C106.747 32.2311 106.433 31.2622 105.806 30.5375C105.184 29.8077 104.331 29.4427 103.247 29.4427C102.142 29.4427 101.26 29.8282 100.602 30.5992C99.9443 31.3702 99.6154 32.3776 99.6154 33.6214C99.6154 34.8807 99.9443 35.8829 100.602 36.6282C101.26 37.3683 102.162 37.7384 103.308 37.7384C104.182 37.7384 104.927 37.5071 105.544 37.0445C106.166 36.5819 106.534 36.0011 106.647 35.3021C106.647 35.3021 106.58 35.3021 106.446 35.3021C106.313 35.3021 106.158 35.3021 105.984 35.3021C105.814 35.3021 105.662 35.3021 105.529 35.3021C105.395 35.3021 105.328 35.3021 105.328 35.3021ZM112.21 34.616C112.277 35.5771 112.686 36.3455 113.436 36.9212C114.192 37.4968 115.176 37.7846 116.389 37.7846C117.633 37.7846 118.627 37.484 119.373 36.8826C120.123 36.2813 120.498 35.4666 120.498 34.4386C120.498 33.6522 120.249 33.0175 119.75 32.5343C119.252 32.0512 118.422 31.6837 117.26 31.4318L116.027 31.162C115.266 30.9975 114.724 30.7637 114.4 30.4604C114.076 30.1572 113.914 29.7871 113.914 29.3502C113.914 28.7848 114.151 28.3428 114.623 28.0242C115.096 27.7003 115.68 27.5384 116.374 27.5384C117.098 27.5384 117.687 27.7132 118.139 28.0627C118.591 28.4122 118.848 28.8928 118.91 29.5044H120.298C120.267 28.5587 119.889 27.7877 119.164 27.1915C118.44 26.5902 117.522 26.2895 116.412 26.2895C115.261 26.2895 114.318 26.5799 113.583 27.1607C112.853 27.7415 112.488 28.4919 112.488 29.4119C112.488 30.2034 112.74 30.8536 113.243 31.3625C113.752 31.8713 114.564 32.2465 115.68 32.4881L116.913 32.7579C117.684 32.9275 118.237 33.1691 118.571 33.4826C118.905 33.791 119.072 34.1791 119.072 34.6468C119.072 35.1916 118.825 35.6439 118.332 36.0037C117.844 36.3583 117.222 36.5357 116.466 36.5357C115.669 36.5357 115.011 36.3661 114.492 36.0268C113.978 35.6825 113.68 35.2122 113.598 34.616C113.598 34.616 113.529 34.616 113.39 34.616C113.251 34.616 113.089 34.616 112.904 34.616C112.719 34.616 112.557 34.616 112.418 34.616C112.28 34.616 112.21 34.616 112.21 34.616ZM122.956 27.6464V29.5815H121.761V30.684H122.956V35.518C122.956 36.289 123.113 36.8389 123.427 37.1679C123.74 37.4968 124.264 37.6613 124.999 37.6613C125.159 37.6613 125.318 37.6561 125.477 37.6459C125.642 37.6356 125.765 37.6202 125.847 37.5996V36.474C125.801 36.4791 125.716 36.4868 125.593 36.4971C125.47 36.5074 125.369 36.5125 125.292 36.5125C124.948 36.5125 124.696 36.4277 124.537 36.2581C124.377 36.0834 124.298 35.8135 124.298 35.4486V30.684H125.855V29.5815H124.298V27.6464C124.298 27.6464 124.228 27.6464 124.09 27.6464C123.956 27.6464 123.802 27.6464 123.627 27.6464C123.452 27.6464 123.295 27.6464 123.157 27.6464C123.023 27.6464 122.956 27.6464 122.956 27.6464ZM130.973 37.7384C132.078 37.7384 132.972 37.3657 133.656 36.6205C134.34 35.8752 134.681 34.8652 134.681 33.5906C134.681 32.3108 134.34 31.3008 133.656 30.5606C132.972 29.8154 132.078 29.4427 130.973 29.4427C129.863 29.4427 128.966 29.8154 128.282 30.5606C127.599 31.3008 127.257 32.3108 127.257 33.5906C127.257 34.8652 127.599 35.8752 128.282 36.6205C128.966 37.3657 129.863 37.7384 130.973 37.7384ZM130.973 36.5588C130.264 36.5588 129.693 36.3018 129.261 35.7878C128.835 35.2687 128.622 34.5363 128.622 33.5906C128.622 32.6448 128.835 31.915 129.261 31.401C129.693 30.8819 130.264 30.6223 130.973 30.6223C131.682 30.6223 132.25 30.8819 132.677 31.401C133.103 31.915 133.317 32.6448 133.317 33.5906C133.317 34.5363 133.103 35.2687 132.677 35.7878C132.25 36.3018 131.682 36.5588 130.973 36.5588ZM136.638 37.5996H137.98V32.6037C137.98 32.0383 138.137 31.5835 138.45 31.2391C138.764 30.8947 139.18 30.7226 139.699 30.7226C139.864 30.7226 140.01 30.7303 140.138 30.7457C140.272 30.7611 140.365 30.7791 140.416 30.7997V29.4967C140.365 29.4864 140.29 29.4762 140.192 29.4659C140.1 29.4505 139.995 29.4427 139.876 29.4427C138.869 29.4427 138.221 29.9259 137.934 30.8922H137.903V29.5815H136.638C136.638 29.5815 136.638 29.8514 136.638 30.391C136.638 30.9307 136.638 31.5989 136.638 32.3956C136.638 33.1922 136.638 33.9889 136.638 34.7856C136.638 35.5822 136.638 36.2504 136.638 36.7901C136.638 37.3298 136.638 37.5996 136.638 37.5996ZM144.94 30.6069C145.572 30.6069 146.081 30.8228 146.467 31.2545C146.857 31.6811 147.06 32.2311 147.076 32.9044H142.72C142.761 32.2362 142.985 31.6863 143.391 31.2545C143.797 30.8228 144.313 30.6069 144.94 30.6069ZM147.045 35.3021C146.932 35.6773 146.698 35.9831 146.343 36.2196C145.994 36.456 145.565 36.5742 145.056 36.5742C144.336 36.5742 143.766 36.3429 143.344 35.8803C142.923 35.4126 142.712 34.7958 142.712 34.03V33.9529H148.464V33.4441C148.464 32.2311 148.15 31.2622 147.523 30.5375C146.901 29.8077 146.048 29.4427 144.963 29.4427C143.858 29.4427 142.977 29.8282 142.319 30.5992C141.661 31.3702 141.332 32.3776 141.332 33.6214C141.332 34.8807 141.661 35.8829 142.319 36.6282C142.977 37.3683 143.879 37.7384 145.025 37.7384C145.899 37.7384 146.644 37.5071 147.261 37.0445C147.883 36.5819 148.25 36.0011 148.363 35.3021C148.363 35.3021 148.297 35.3021 148.163 35.3021C148.029 35.3021 147.875 35.3021 147.7 35.3021C147.531 35.3021 147.379 35.3021 147.245 35.3021C147.112 35.3021 147.045 35.3021 147.045 35.3021Z" fill="white"></path>
  <path opacity="0.702542" fill-rule="evenodd" clip-rule="evenodd" d="M31.1569 52.8949C43.8124 52.8949 54.0717 42.6446 54.0717 30.0002C54.0717 17.3558 43.8124 7.10547 31.1569 7.10547C18.5015 7.10547 8.24219 17.3558 8.24219 30.0002C8.24219 42.6446 18.5015 52.8949 31.1569 52.8949Z" stroke="white" stroke-width="0.5"></path>
  <path fill-rule="evenodd" clip-rule="evenodd" d="M40.6389 33.659C40.2702 34.8846 39.6887 36.1103 38.8946 37.3359C37.675 39.2577 36.4602 40.2186 35.2501 40.2186C34.7868 40.2186 34.1251 40.0617 33.2648 39.748C32.4517 39.4342 31.7379 39.2773 31.1234 39.2773C30.5467 39.2773 29.8755 39.4391 29.1097 39.7627C28.344 40.0961 27.72 40.2627 27.2378 40.2627C25.8008 40.2627 24.378 38.993 22.9694 36.4534C21.5796 33.8943 20.8848 31.4283 20.8848 29.0554C20.8848 26.8199 21.4189 24.9863 22.4872 23.5548C23.5461 22.1428 24.8885 21.4368 26.5146 21.4368C27.1953 21.4368 28.032 21.5839 29.0246 21.8781C30.0079 22.1722 30.6602 22.3193 30.9816 22.3193C31.407 22.3193 32.083 22.1526 33.0095 21.8192C33.9738 21.4859 34.7916 21.3192 35.4628 21.3192C36.5878 21.3192 37.5947 21.6378 38.4834 22.2752C38.975 22.6282 39.4666 23.1184 39.9582 23.746C39.2113 24.4029 38.6724 24.9814 38.3415 25.4815C37.727 26.4032 37.4198 27.418 37.4198 28.526C37.4198 29.7418 37.7459 30.8351 38.3983 31.8058C39.0506 32.7765 39.7975 33.3942 40.6389 33.659ZM35.3068 16.4068C35.3068 17.0049 35.1697 17.6717 34.8956 18.407C34.6119 19.1424 34.1723 19.819 33.5767 20.4367C33.0662 20.9662 32.5557 21.3192 32.0452 21.4957C31.6954 21.6035 31.2038 21.6869 30.5704 21.7457C30.5987 20.2847 30.9674 19.0248 31.6765 17.9658C32.3761 16.9167 33.5578 16.1911 35.2217 15.7891C35.2312 15.8185 35.243 15.8724 35.2572 15.9508C35.2714 16.0293 35.2832 16.0832 35.2926 16.1126C35.2926 16.1519 35.295 16.2009 35.2997 16.2597C35.3045 16.3185 35.3068 16.3676 35.3068 16.4068Z" fill="white"></path>
</svg>
