<?xml version="1.0" encoding="UTF-8"?>
<svg xmlns="http://www.w3.org/2000/svg" width="193" height="60" viewBox="0 0 193 60" fill="none">
  <rect width="192.8" height="60" rx="30" fill="#212121"></rect>
  <path d="M71.1402 22.7998H71.8047L69.9344 17.7268H69.3086L67.4383 22.7998H68.1027L68.6125 21.3479H70.6305C70.6305 21.3479 70.6562 21.4217 70.7078 21.5693C70.7594 21.7146 70.818 21.8834 70.8836 22.0756C70.9516 22.2654 71.0113 22.4342 71.0629 22.5818C71.1145 22.7271 71.1402 22.7998 71.1402 22.7998ZM69.5934 18.5459H69.6496L70.4441 20.81H68.7988C68.7988 20.81 68.8258 20.7338 68.8797 20.5814C68.9336 20.4291 68.9992 20.2404 69.0766 20.0154C69.1562 19.7904 69.2348 19.5654 69.3121 19.3404C69.3918 19.1154 69.4586 18.9268 69.5125 18.7744C69.5664 18.6221 69.5934 18.5459 69.5934 18.5459ZM72.8904 22.7998H73.4951V20.5568C73.4951 20.224 73.5853 19.9627 73.7658 19.7729C73.9463 19.583 74.1877 19.4881 74.49 19.4881C74.7924 19.4881 75.0162 19.5701 75.1615 19.7342C75.3091 19.8982 75.383 20.1514 75.383 20.4936V22.7998H75.9877V20.3459C75.9877 19.8959 75.8728 19.5502 75.6431 19.3088C75.4158 19.065 75.0888 18.9432 74.6623 18.9432C74.3716 18.9432 74.1326 19.0018 73.9451 19.1189C73.7599 19.2361 73.6193 19.399 73.5232 19.6076H73.467V19.01H72.8904C72.8904 19.01 72.8904 19.1377 72.8904 19.3932C72.8904 19.6486 72.8904 19.965 72.8904 20.3424C72.8904 20.7174 72.8904 21.0936 72.8904 21.4709C72.8904 21.8459 72.8904 22.1611 72.8904 22.4166C72.8904 22.6721 72.8904 22.7998 72.8904 22.7998ZM78.7714 22.8666C79.0339 22.8666 79.2718 22.808 79.4851 22.6908C79.6984 22.5713 79.8648 22.4061 79.9843 22.1951H80.0406V22.7998H80.6171V17.5053H80.0124V19.6076H79.9597C79.8519 19.399 79.6925 19.2361 79.4816 19.1189C79.273 19.0018 79.0363 18.9432 78.7714 18.9432C78.2909 18.9432 77.9054 19.1213 77.6148 19.4775C77.3242 19.8338 77.1788 20.3096 77.1788 20.9049C77.1788 21.5002 77.323 21.976 77.6113 22.3322C77.8995 22.6885 78.2863 22.8666 78.7714 22.8666ZM78.912 19.4881C79.2542 19.4881 79.5249 19.6158 79.7242 19.8713C79.9257 20.1268 80.0265 20.4713 80.0265 20.9049C80.0265 21.3432 79.9269 21.6889 79.7277 21.942C79.5284 22.1951 79.2566 22.3217 78.912 22.3217C78.5652 22.3217 78.2933 22.1963 78.0964 21.9455C77.9019 21.6947 77.8046 21.3479 77.8046 20.9049C77.8046 20.4643 77.9031 20.1186 78.0999 19.8678C78.2968 19.6146 78.5675 19.4881 78.912 19.4881ZM82.0649 22.7998H82.6696V20.4514C82.6696 20.1842 82.7634 19.9639 82.9509 19.7904C83.1384 19.617 83.3763 19.5303 83.6646 19.5303C83.7255 19.5303 83.7993 19.535 83.886 19.5443C83.9728 19.5514 84.0278 19.5584 84.0513 19.5654V18.9607C84.0138 18.9561 83.9657 18.9525 83.9071 18.9502C83.8509 18.9455 83.7981 18.9432 83.7489 18.9432C83.4981 18.9432 83.2743 19.0018 83.0774 19.1189C82.8806 19.2361 82.754 19.3873 82.6978 19.5725H82.6415V19.01H82.0649C82.0649 19.01 82.0649 19.1377 82.0649 19.3932C82.0649 19.6486 82.0649 19.965 82.0649 20.3424C82.0649 20.7174 82.0649 21.0936 82.0649 21.4709C82.0649 21.8459 82.0649 22.1611 82.0649 22.4166C82.0649 22.6721 82.0649 22.7998 82.0649 22.7998ZM86.5327 22.8666C87.0717 22.8666 87.4971 22.692 87.8089 22.3428C88.1229 21.9912 88.2799 21.5119 88.2799 20.9049C88.2799 20.2955 88.1229 19.8162 87.8089 19.467C87.4971 19.1178 87.0717 18.9432 86.5327 18.9432C85.9936 18.9432 85.5671 19.1178 85.253 19.467C84.9413 19.8162 84.7854 20.2955 84.7854 20.9049C84.7854 21.5119 84.9413 21.9912 85.253 22.3428C85.5671 22.692 85.9936 22.8666 86.5327 22.8666ZM86.5327 22.3217C86.1741 22.3217 85.8975 22.1975 85.703 21.949C85.5085 21.7006 85.4112 21.3525 85.4112 20.9049C85.4112 20.4549 85.5085 20.1068 85.703 19.8607C85.8975 19.6123 86.1741 19.4881 86.5327 19.4881C86.8913 19.4881 87.1678 19.6123 87.3624 19.8607C87.5569 20.1068 87.6542 20.4549 87.6542 20.9049C87.6542 21.3525 87.5569 21.7006 87.3624 21.949C87.1678 22.1975 86.8913 22.3217 86.5327 22.3217ZM89.5168 22.7998H90.1215V19.01H89.5168C89.5168 19.01 89.5168 19.1377 89.5168 19.3932C89.5168 19.6486 89.5168 19.965 89.5168 20.3424C89.5168 20.7174 89.5168 21.0936 89.5168 21.4709C89.5168 21.8459 89.5168 22.1611 89.5168 22.4166C89.5168 22.6721 89.5168 22.7998 89.5168 22.7998ZM89.8192 18.2787C89.9364 18.2787 90.036 18.2377 90.118 18.1557C90.2 18.0713 90.241 17.9717 90.241 17.8568C90.241 17.7396 90.2 17.64 90.118 17.558C90.036 17.476 89.9364 17.435 89.8192 17.435C89.702 17.435 89.6024 17.476 89.5203 17.558C89.4383 17.64 89.3973 17.7396 89.3973 17.8568C89.3973 17.9717 89.4383 18.0713 89.5203 18.1557C89.6024 18.2377 89.702 18.2787 89.8192 18.2787ZM92.951 22.8666C93.2135 22.8666 93.4514 22.808 93.6646 22.6908C93.8779 22.5713 94.0443 22.4061 94.1639 22.1951H94.2201V22.7998H94.7967V17.5053H94.192V19.6076H94.1393C94.0314 19.399 93.8721 19.2361 93.6611 19.1189C93.4525 19.0018 93.2158 18.9432 92.951 18.9432C92.4705 18.9432 92.085 19.1213 91.7943 19.4775C91.5037 19.8338 91.3584 20.3096 91.3584 20.9049C91.3584 21.5002 91.5025 21.976 91.7908 22.3322C92.0791 22.6885 92.4658 22.8666 92.951 22.8666ZM93.0916 19.4881C93.4338 19.4881 93.7045 19.6158 93.9037 19.8713C94.1053 20.1268 94.2061 20.4713 94.2061 20.9049C94.2061 21.3432 94.1064 21.6889 93.9072 21.942C93.708 22.1951 93.4361 22.3217 93.0916 22.3217C92.7447 22.3217 92.4729 22.1963 92.276 21.9455C92.0814 21.6947 91.9842 21.3479 91.9842 20.9049C91.9842 20.4643 92.0826 20.1186 92.2795 19.8678C92.4764 19.6146 92.7471 19.4881 93.0916 19.4881ZM101.925 22.7998H102.59L100.719 17.7268H100.093L98.2232 22.7998H98.8876L99.3974 21.3479H101.415C101.415 21.3479 101.441 21.4217 101.493 21.5693C101.544 21.7146 101.603 21.8834 101.668 22.0756C101.736 22.2654 101.796 22.4342 101.848 22.5818C101.899 22.7271 101.925 22.7998 101.925 22.7998ZM100.378 18.5459H100.435L101.229 20.81H99.5837C99.5837 20.81 99.6107 20.7338 99.6646 20.5814C99.7185 20.4291 99.7841 20.2404 99.8615 20.0154C99.9411 19.7904 100.02 19.5654 100.097 19.3404C100.177 19.1154 100.243 18.9268 100.297 18.7744C100.351 18.6221 100.378 18.5459 100.378 18.5459ZM105.521 18.9432C105.263 18.9432 105.026 19.0053 104.811 19.1295C104.598 19.2537 104.43 19.4248 104.308 19.6428H104.252V19.01H103.675V24.0654H104.28V22.2303H104.336C104.439 22.4295 104.595 22.5854 104.804 22.6979C105.012 22.8104 105.251 22.8666 105.521 22.8666C106.004 22.8666 106.389 22.6885 106.678 22.3322C106.968 21.9736 107.114 21.4979 107.114 20.9049C107.114 20.3096 106.968 19.8338 106.678 19.4775C106.389 19.1213 106.004 18.9432 105.521 18.9432ZM105.377 22.3217C105.037 22.3217 104.766 22.1939 104.565 21.9385C104.363 21.683 104.262 21.3385 104.262 20.9049C104.262 20.4689 104.363 20.1244 104.565 19.8713C104.766 19.6158 105.038 19.4881 105.38 19.4881C105.727 19.4881 105.998 19.6135 106.192 19.8643C106.389 20.115 106.488 20.4619 106.488 20.9049C106.488 21.3479 106.389 21.6947 106.192 21.9455C105.998 22.1963 105.726 22.3217 105.377 22.3217ZM110.182 18.9432C109.924 18.9432 109.688 19.0053 109.472 19.1295C109.259 19.2537 109.091 19.4248 108.969 19.6428H108.913V19.01H108.336V24.0654H108.941V22.2303H108.997C109.1 22.4295 109.256 22.5854 109.465 22.6979C109.673 22.8104 109.913 22.8666 110.182 22.8666C110.665 22.8666 111.05 22.6885 111.339 22.3322C111.629 21.9736 111.775 21.4979 111.775 20.9049C111.775 20.3096 111.629 19.8338 111.339 19.4775C111.05 19.1213 110.665 18.9432 110.182 18.9432ZM110.038 22.3217C109.698 22.3217 109.427 22.1939 109.226 21.9385C109.024 21.683 108.923 21.3385 108.923 20.9049C108.923 20.4689 109.024 20.1244 109.226 19.8713C109.427 19.6158 109.699 19.4881 110.041 19.4881C110.388 19.4881 110.659 19.6135 110.854 19.8643C111.05 20.115 111.149 20.4619 111.149 20.9049C111.149 21.3479 111.05 21.6947 110.854 21.9455C110.659 22.1963 110.387 22.3217 110.038 22.3217ZM116.861 22.8666C117.4 22.8666 117.825 22.692 118.137 22.3428C118.451 21.9912 118.608 21.5119 118.608 20.9049C118.608 20.2955 118.451 19.8162 118.137 19.467C117.825 19.1178 117.4 18.9432 116.861 18.9432C116.321 18.9432 115.895 19.1178 115.581 19.467C115.269 19.8162 115.113 20.2955 115.113 20.9049C115.113 21.5119 115.269 21.9912 115.581 22.3428C115.895 22.692 116.321 22.8666 116.861 22.8666ZM116.861 22.3217C116.502 22.3217 116.225 22.1975 116.031 21.949C115.836 21.7006 115.739 21.3525 115.739 20.9049C115.739 20.4549 115.836 20.1068 116.031 19.8607C116.225 19.6123 116.502 19.4881 116.861 19.4881C117.219 19.4881 117.496 19.6123 117.69 19.8607C117.885 20.1068 117.982 20.4549 117.982 20.9049C117.982 21.3525 117.885 21.7006 117.69 21.949C117.496 22.1975 117.219 22.3217 116.861 22.3217ZM119.831 22.7998H120.435V20.5568C120.435 20.224 120.526 19.9627 120.706 19.7729C120.886 19.583 121.128 19.4881 121.43 19.4881C121.733 19.4881 121.956 19.5701 122.102 19.7342C122.249 19.8982 122.323 20.1514 122.323 20.4936V22.7998H122.928V20.3459C122.928 19.8959 122.813 19.5502 122.583 19.3088C122.356 19.065 122.029 18.9432 121.603 18.9432C121.312 18.9432 121.073 19.0018 120.885 19.1189C120.7 19.2361 120.56 19.399 120.463 19.6076H120.407V19.01H119.831C119.831 19.01 119.831 19.1377 119.831 19.3932C119.831 19.6486 119.831 19.965 119.831 20.3424C119.831 20.7174 119.831 21.0936 119.831 21.4709C119.831 21.8459 119.831 22.1611 119.831 22.4166C119.831 22.6721 119.831 22.7998 119.831 22.7998Z" fill="white"></path>
  <path d="M74.9473 35.6484V34.4111H70.8525V35.792H73.2246L73.2178 35.9971C73.1904 37.3574 72.165 38.2734 70.6611 38.2734C68.9043 38.2734 67.8037 36.8926 67.8037 34.6504C67.8037 32.4355 68.8838 31.0615 70.6064 31.0615C71.8711 31.0615 72.7529 31.6836 73.1084 32.8047H74.8652C74.5508 30.7881 72.8828 29.4893 70.6064 29.4893C67.7969 29.4893 65.999 31.5059 65.999 34.6641C65.999 37.8633 67.7764 39.8457 70.6338 39.8457C73.2656 39.8457 74.9473 38.2119 74.9473 35.6484ZM80.9208 29.4893C78.0566 29.4893 76.2451 31.4785 76.2451 34.6641C76.2451 37.8496 78.0224 39.8457 80.9208 39.8457C83.7988 39.8457 85.5761 37.8428 85.5761 34.6641C85.5761 31.4785 83.7851 29.4893 80.9208 29.4893ZM80.9208 31.0547C82.6708 31.0547 83.7714 32.4561 83.7714 34.6641C83.7714 36.8652 82.6777 38.2803 80.9208 38.2803C79.1367 38.2803 78.0497 36.8652 78.0497 34.6641C78.0497 32.4561 79.164 31.0547 80.9208 31.0547ZM91.5223 29.4893C88.6581 29.4893 86.8466 31.4785 86.8466 34.6641C86.8466 37.8496 88.6239 39.8457 91.5223 39.8457C94.4003 39.8457 96.1776 37.8428 96.1776 34.6641C96.1776 31.4785 94.3866 29.4893 91.5223 29.4893ZM91.5223 31.0547C93.2723 31.0547 94.3729 32.4561 94.3729 34.6641C94.3729 36.8652 93.2792 38.2803 91.5223 38.2803C89.7382 38.2803 88.6512 36.8652 88.6512 34.6641C88.6512 32.4561 89.7655 31.0547 91.5223 31.0547ZM106.396 35.6484V34.4111H102.302V35.792H104.674L104.667 35.9971C104.639 37.3574 103.614 38.2734 102.11 38.2734C100.353 38.2734 99.2527 36.8926 99.2527 34.6504C99.2527 32.4355 100.333 31.0615 102.055 31.0615C103.32 31.0615 104.202 31.6836 104.557 32.8047H106.314C106 30.7881 104.332 29.4893 102.055 29.4893C99.2459 29.4893 97.4481 31.5059 97.4481 34.6641C97.4481 37.8633 99.2254 39.8457 102.083 39.8457C104.715 39.8457 106.396 38.2119 106.396 35.6484ZM114.4 38.0547H109.875V29.7354H108.111V39.5996H114.4V38.0547ZM122.349 38.0752H117.728V35.3135H122.096V33.8779H117.728V31.2598H122.349V29.7354H115.965V39.5996H122.349V38.0752ZM127.597 29.7354V39.5996H129.361V36.3662H131.501C133.497 36.3662 134.891 35.0264 134.891 33.0713C134.891 31.082 133.544 29.7354 131.576 29.7354H127.597ZM129.361 31.2119H131.111C132.382 31.2119 133.1 31.8613 133.1 33.0713C133.1 34.2471 132.362 34.9033 131.104 34.9033H129.361V31.2119ZM142.792 38.0547H138.267V29.7354H136.503V39.5996H142.792V38.0547ZM150.721 39.5996H152.615L149.108 29.7354H147.125L143.625 39.5996H145.41L146.257 37.0771H149.887L150.721 39.5996ZM148.021 31.6152H148.137L149.477 35.6826H146.667L148.021 31.6152ZM157.371 39.5996V35.7441L160.83 29.7354H158.896L156.551 33.9531H156.435L154.083 29.7354H152.149L155.608 35.7441V39.5996H157.371Z" fill="white"></path>
  <path opacity="0.701318" fill-rule="evenodd" clip-rule="evenodd" d="M30.3581 52.8949C43.0136 52.8949 53.2729 42.6446 53.2729 30.0002C53.2729 17.3558 43.0136 7.10547 30.3581 7.10547C17.7026 7.10547 7.44336 17.3558 7.44336 30.0002C7.44336 42.6446 17.7026 52.8949 30.3581 52.8949Z" stroke="white" stroke-width="0.5"></path>
  <path fill-rule="evenodd" clip-rule="evenodd" d="M37.868 26.5437L23.3453 18.643C22.9335 18.4201 22.5537 18.3683 22.2461 18.4632L34.1415 30.2314L37.868 26.5437Z" fill="url(#paint0_linear)"></path>
  <path fill-rule="evenodd" clip-rule="evenodd" d="M37.8861 33.9375L42.8439 31.2404C43.8492 30.6916 43.8492 29.7986 42.8439 29.2511L37.8678 26.5439L34.1406 30.2316L37.8861 33.9375Z" fill="url(#paint1_linear)"></path>
  <path fill-rule="evenodd" clip-rule="evenodd" d="M22.2452 18.4629C21.8034 18.5996 21.5176 19.042 21.5176 19.7114L21.5203 40.7789C21.5203 41.4409 21.7973 41.8766 22.2261 42.022L34.1413 30.233L22.2452 18.4629Z" fill="url(#paint2_linear)"></path>
  <path fill-rule="evenodd" clip-rule="evenodd" d="M22.2266 42.0224C22.5363 42.1261 22.9235 42.0776 23.3455 41.8486L37.8852 33.9372L34.1417 30.2334L22.2266 42.0224Z" fill="url(#paint3_linear)"></path>
  <mask id="mask0" maskUnits="userSpaceOnUse" x="22" y="30" width="16" height="13">
    <path fill-rule="evenodd" clip-rule="evenodd" d="M22.2266 42.0224C22.5363 42.1261 22.9235 42.0776 23.3455 41.8486L37.8852 33.9372L34.1417 30.2334L22.2266 42.0224Z" fill="white"></path>
  </mask>
  <g mask="url(#mask0)">
</g>
  <defs>
    <linearGradient id="paint0_linear" x1="15.1956" y1="17.2232" x2="19.9372" y2="33.3337" gradientUnits="userSpaceOnUse">
      <stop stop-color="#19A3B4"></stop>
      <stop offset="0.348168" stop-color="#5BC3AF"></stop>
      <stop offset="0.922336" stop-color="#C8F7A6"></stop>
      <stop offset="1" stop-color="#D7FEA5"></stop>
    </linearGradient>
    <linearGradient id="paint1_linear" x1="21.9467" y1="21.4017" x2="27.405" y2="39.2166" gradientUnits="userSpaceOnUse">
      <stop stop-color="#FC227C"></stop>
      <stop offset="1" stop-color="#FEEB7B"></stop>
    </linearGradient>
    <linearGradient id="paint2_linear" x1="18.9041" y1="17.3331" x2="26.9114" y2="38.2559" gradientUnits="userSpaceOnUse">
      <stop stop-color="#0E4DA0"></stop>
      <stop offset="1" stop-color="#6BFED4"></stop>
    </linearGradient>
    <linearGradient id="paint3_linear" x1="34.3342" y1="24.7064" x2="19.3818" y2="41.9054" gradientUnits="userSpaceOnUse">
      <stop stop-color="#FC472E"></stop>
      <stop offset="0.00331892" stop-color="#FC472F"></stop>
      <stop offset="1" stop-color="#893CD8"></stop>
    </linearGradient>
  </defs>
</svg>
